<svg width="60" height="60" viewBox="0 0 60 60" fill="none" xmlns="http://www.w3.org/2000/svg">
<path d="M43.8281 44.9991C43.1808 44.9991 42.6562 44.4745 42.6562 43.8272V41.9524C42.6562 32.6472 35.086 25.077 25.781 25.077C24.4885 25.077 23.437 24.0257 23.437 22.7332V17.3472C23.437 17.3469 23.437 17.3467 23.437 17.3465C23.4352 17.3453 23.4329 17.3446 23.4309 17.344C23.4302 17.3446 23.4293 17.3456 23.4283 17.3465L17.6884 23.0742C17.4662 23.296 17.3438 23.5911 17.3438 23.9051C17.3438 24.2191 17.4662 24.5141 17.6884 24.7359L23.4283 30.4639C23.4293 30.4648 23.4302 30.4655 23.4309 30.4664C23.4329 30.4657 23.4352 30.4648 23.437 30.4639C23.437 30.4637 23.437 30.4635 23.437 30.4632V29.1787C23.437 28.5315 23.9619 28.0066 24.6091 28.0066C25.2562 28.0066 25.781 28.5315 25.781 29.1787V30.4632C25.781 31.4145 25.2127 32.265 24.3331 32.6298C23.4526 32.9951 22.4476 32.7962 21.7728 32.1229L16.0329 26.3951C15.3669 25.7304 15 24.846 15 23.9051C15 22.9641 15.3669 22.08 16.0329 21.4153L21.7728 15.6873C22.4476 15.0142 23.4526 14.8153 24.3331 15.1806C25.2127 15.5454 25.781 16.3957 25.781 17.3472V22.7332C30.9144 22.7332 35.7408 24.7323 39.3709 28.3623C43.0009 31.9924 45 36.8188 45 41.9522V43.8272C45 44.4745 44.4754 44.9991 43.8281 44.9991Z" fill="#5642BB"/>
</svg>
