<svg width="294" height="150" viewBox="0 0 294 150" fill="none" xmlns="http://www.w3.org/2000/svg">
<path d="M192.144 138.458C191.749 138.531 191.158 138.621 190.369 138.729C189.616 138.874 188.845 138.946 188.056 138.946C187.267 138.946 186.55 138.892 185.904 138.783C185.295 138.675 184.775 138.458 184.345 138.133C183.914 137.808 183.574 137.375 183.323 136.833C183.108 136.256 183 135.515 183 134.613V103.196C183.394 103.124 183.968 103.033 184.721 102.925C185.51 102.781 186.299 102.708 187.088 102.708C187.877 102.708 188.576 102.762 189.185 102.871C189.831 102.979 190.369 103.196 190.799 103.521C191.229 103.846 191.552 104.297 191.767 104.875C192.018 105.417 192.144 106.139 192.144 107.042V138.458Z" fill="white"/>
<path d="M197.698 104.875C197.698 103.503 198.147 102.347 199.043 101.408C199.975 100.469 201.195 100 202.701 100C204.207 100 205.408 100.469 206.304 101.408C207.237 102.347 207.703 103.503 207.703 104.875C207.703 106.247 207.237 107.403 206.304 108.342C205.408 109.281 204.207 109.75 202.701 109.75C201.195 109.75 199.975 109.281 199.043 108.342C198.147 107.403 197.698 106.247 197.698 104.875ZM207.272 138.458C206.878 138.531 206.286 138.621 205.497 138.729C204.744 138.874 203.973 138.946 203.185 138.946C202.396 138.946 201.679 138.892 201.033 138.783C200.424 138.675 199.904 138.458 199.473 138.133C199.043 137.808 198.702 137.375 198.451 136.833C198.236 136.256 198.129 135.515 198.129 134.613V112.567C198.523 112.494 199.097 112.404 199.85 112.296C200.639 112.151 201.428 112.079 202.216 112.079C203.005 112.079 203.705 112.133 204.314 112.242C204.96 112.35 205.497 112.567 205.928 112.892C206.358 113.217 206.681 113.668 206.896 114.246C207.147 114.787 207.272 115.51 207.272 116.413V138.458Z" fill="white"/>
<path d="M229.66 121.829C229.66 120.71 229.337 119.897 228.692 119.392C228.082 118.85 227.239 118.579 226.164 118.579C225.446 118.579 224.729 118.669 224.012 118.85C223.331 119.031 222.739 119.301 222.237 119.663V138.458C221.879 138.567 221.305 138.675 220.516 138.783C219.763 138.892 218.974 138.946 218.149 138.946C217.361 138.946 216.643 138.892 215.998 138.783C215.388 138.675 214.868 138.458 214.438 138.133C214.008 137.808 213.667 137.375 213.416 136.833C213.201 136.256 213.094 135.515 213.094 134.613V118.362C213.094 117.387 213.291 116.593 213.685 115.979C214.115 115.365 214.689 114.806 215.406 114.3C216.625 113.433 218.149 112.729 219.978 112.188C221.843 111.646 223.905 111.375 226.164 111.375C230.216 111.375 233.335 112.278 235.522 114.083C237.71 115.853 238.803 118.326 238.803 121.504V138.458C238.445 138.567 237.871 138.675 237.082 138.783C236.329 138.892 235.54 138.946 234.716 138.946C233.927 138.946 233.21 138.892 232.564 138.783C231.955 138.675 231.435 138.458 231.004 138.133C230.574 137.808 230.233 137.375 229.982 136.833C229.767 136.256 229.66 135.515 229.66 134.613V121.829Z" fill="white"/>
<path d="M270 133.746C269.821 135.443 269.319 136.743 268.494 137.646C267.705 138.549 266.54 139 264.998 139C263.85 139 262.828 138.729 261.932 138.188C261.036 137.61 260.067 136.653 259.028 135.317L253.703 128.6V138.458C253.308 138.531 252.717 138.621 251.928 138.729C251.175 138.874 250.404 138.946 249.615 138.946C248.826 138.946 248.109 138.892 247.463 138.783C246.854 138.675 246.334 138.458 245.904 138.133C245.473 137.808 245.133 137.375 244.882 136.833C244.667 136.256 244.559 135.515 244.559 134.613V103.25C244.953 103.142 245.527 103.033 246.28 102.925C247.069 102.781 247.858 102.708 248.647 102.708C249.436 102.708 250.135 102.762 250.744 102.871C251.39 102.979 251.928 103.196 252.358 103.521C252.788 103.846 253.111 104.297 253.326 104.875C253.577 105.417 253.703 106.139 253.703 107.042V121.342L262.954 111.808C264.819 111.808 266.307 112.224 267.418 113.054C268.566 113.885 269.139 114.932 269.139 116.196C269.139 116.737 269.05 117.243 268.87 117.713C268.691 118.146 268.404 118.597 268.01 119.067C267.651 119.536 267.167 120.042 266.558 120.583C265.984 121.089 265.303 121.685 264.514 122.371L261.394 125.079L270 133.746Z" fill="white"/>
<path fill-rule="evenodd" clip-rule="evenodd" d="M32.47 11C30.6821 11 28.9269 11.1542 27.2063 11.4643C25.5982 11.6846 24.3094 11.9191 23.4253 12.1844L22 12.6119V72.73C22 77.0421 23.988 80.5551 27.6802 83.1594C30.221 84.9842 33.2667 86.4576 36.7816 87.6055C40.4225 88.8688 44.7589 89.47 49.74 89.47C54.3875 89.47 58.6669 88.8605 62.5596 87.6149L62.571 87.6112L62.5825 87.6074C66.5529 86.2839 69.9601 84.3556 72.7595 81.7961C75.567 79.2293 77.7108 76.0386 79.2056 72.2662C80.7871 68.3873 81.55 63.9444 81.55 58.98C81.55 54.1619 80.8237 49.8336 79.3196 46.0339C77.8368 42.2879 75.7854 39.1102 73.1433 36.5449C70.5343 33.9387 67.5208 31.9564 64.1153 30.6101C60.719 29.2673 57.132 28.6 53.37 28.6C51.2925 28.6 49.3431 28.7538 47.5273 29.0696L47.5198 29.0709L47.5122 29.0723C46.5973 29.2386 45.6597 29.4677 44.7 29.7572V21.8C44.7 19.8459 44.4709 18.1032 43.9051 16.6777C43.3499 15.2069 42.4806 13.9654 41.26 13.05C40.0763 12.1622 38.663 11.6208 37.0983 11.3588C35.7131 11.1151 34.1661 11 32.47 11ZM44.59 48.2897C45.2965 47.9961 45.9433 47.7671 46.5321 47.598C47.4209 47.363 48.5185 47.23 49.85 47.23C52.544 47.23 54.5271 48.1481 56.0176 49.9252C57.4938 51.6853 58.41 54.5814 58.41 58.98C58.41 63.2892 57.5004 66.2094 55.9978 68.0588L55.9932 68.0645C54.601 69.7908 52.6138 70.73 49.74 70.73C48.1975 70.73 46.9643 70.5981 46.0082 70.3677C45.4848 70.1902 45.0132 69.9984 44.59 69.7945V48.2897Z" fill="white"/>
<path fill-rule="evenodd" clip-rule="evenodd" d="M115.173 28.6C110.642 28.6 106.476 29.2915 102.701 30.7073C98.936 32.1191 95.6541 34.17 92.8799 36.8648C90.1656 39.4993 88.0714 42.7143 86.5832 46.4739C85.0848 50.2593 84.3528 54.437 84.3528 58.98C84.3528 63.5917 85.0833 67.807 86.5832 71.5961C88.0696 75.3512 90.1581 78.5937 92.8586 81.2942L92.8794 81.315L92.9008 81.3352C95.6732 83.9492 98.9483 85.9556 102.701 87.3627C106.476 88.7786 110.642 89.47 115.173 89.47C119.692 89.47 123.845 88.8189 127.611 87.4853C131.376 86.1515 134.632 84.1754 137.345 81.5452C140.135 78.9116 142.271 75.6936 143.762 71.9261L143.768 71.9131C145.265 68.0517 145.993 63.7304 145.993 58.98C145.993 54.5056 145.259 50.3654 143.762 46.5839C142.273 42.8213 140.141 39.6068 137.356 36.9751C134.656 34.281 131.415 32.2334 127.662 30.8237C123.881 29.3298 119.709 28.6 115.173 28.6ZM109.664 50.0036C110.957 48.1477 112.713 47.23 115.173 47.23C117.633 47.23 119.389 48.1477 120.682 50.0036L120.69 50.0155L120.699 50.0273C122.043 51.898 122.853 54.7931 122.853 58.98C122.853 63.161 122.046 66.1098 120.682 68.0664L120.67 68.0834L120.659 68.1006C119.442 69.9262 117.741 70.84 115.283 70.84C112.808 70.84 111.002 69.9436 109.644 68.1478C108.295 66.1953 107.493 63.2219 107.493 58.98C107.493 54.7931 108.302 51.898 109.647 50.0273L109.655 50.0155L109.664 50.0036Z" fill="white"/>
<path fill-rule="evenodd" clip-rule="evenodd" d="M179.626 28.6C175.095 28.6 170.929 29.2915 167.154 30.7073C163.389 32.1192 160.107 34.1703 157.332 36.8654C154.618 39.4998 152.524 42.7146 151.036 46.4739C149.538 50.2593 148.806 54.437 148.806 58.98C148.806 63.5917 149.536 67.807 151.036 71.5961C152.523 75.3512 154.611 78.5937 157.312 81.2942L157.333 81.315L157.354 81.3352C160.126 83.9492 163.401 85.9556 167.154 87.3627C170.929 88.7785 175.095 89.47 179.626 89.47C184.145 89.47 188.298 88.8189 192.064 87.4853C195.829 86.1515 199.085 84.1755 201.798 81.5455C204.588 78.9118 206.724 75.6937 208.216 71.9261L208.221 71.9131C209.718 68.0517 210.446 63.7304 210.446 58.98C210.446 54.5056 209.712 50.3654 208.216 46.5839C206.726 42.8213 204.594 39.6068 201.809 36.975C199.109 34.281 195.868 32.2335 192.115 30.8238C188.334 29.3299 184.162 28.6 179.626 28.6ZM174.117 50.0036C175.41 48.1477 177.166 47.23 179.626 47.23C182.086 47.23 183.842 48.1477 185.135 50.0036L185.143 50.0155L185.152 50.0273C186.497 51.898 187.306 54.7931 187.306 58.98C187.306 63.161 186.499 66.1098 185.135 68.0664L185.123 68.0834L185.112 68.1006C183.895 69.9262 182.194 70.84 179.736 70.84C177.261 70.84 175.455 69.9436 174.097 68.1477C172.748 66.1951 171.946 63.2218 171.946 58.98C171.946 54.7931 172.755 51.898 174.1 50.0273L174.108 50.0155L174.117 50.0036Z" fill="white"/>
<path fill-rule="evenodd" clip-rule="evenodd" d="M240.099 28.6C235.781 28.6 231.831 29.0542 228.264 29.9848C224.742 30.9037 221.709 32.1499 219.215 33.7594L219.183 33.7799L219.152 33.8015C217.528 34.9381 216.179 36.2319 215.145 37.6966L215.122 37.7296L215.1 37.7635C214.025 39.4252 213.569 41.4501 213.569 43.69V96.49C213.569 98.4438 213.798 100.186 214.364 101.612C214.919 103.083 215.788 104.324 217.009 105.24C218.176 106.115 219.542 106.663 221.051 106.93L221.061 106.931L221.07 106.933C222.518 107.174 224.097 107.29 225.799 107.29C227.587 107.29 229.342 107.136 231.063 106.826C232.671 106.605 233.96 106.371 234.844 106.106L236.269 105.678V88.5959C238.434 89.1075 240.702 89.36 243.069 89.36C247.433 89.36 251.434 88.7479 255.049 87.4914C258.751 86.2305 261.944 84.3232 264.591 81.7558L264.602 81.7451L264.613 81.7342C267.254 79.0932 269.271 75.873 270.682 72.1122C272.104 68.3197 272.789 63.9659 272.789 59.09C272.789 53.9773 271.989 49.4757 270.314 45.6442C268.666 41.8011 266.368 38.5779 263.407 36.0173C260.458 33.4667 256.938 31.6167 252.886 30.4448C248.936 29.2084 244.669 28.6 240.099 28.6ZM237.652 47.6774C238.511 47.3908 239.539 47.23 240.759 47.23C243.812 47.23 245.857 48.1905 247.232 49.8955L247.244 49.9105L247.257 49.9252C248.729 51.6807 249.649 54.6087 249.649 59.09C249.649 63.3697 248.746 66.2069 247.283 67.9535C245.878 69.632 243.685 70.62 240.319 70.62C239.313 70.62 238.4 70.4945 237.568 70.257C237.076 70.1161 236.606 69.9576 236.159 69.7822V48.1564C236.571 47.9962 237.028 47.8474 237.534 47.7125L237.593 47.6967L237.652 47.6774Z" fill="white"/>
</svg>
