<svg width="50" height="50" viewBox="0 0 50 50" fill="none" xmlns="http://www.w3.org/2000/svg">
<path d="M15.7072 32.2929C15.3167 32.6834 15.3167 33.3166 15.7072 33.7071C16.0977 34.0976 16.7309 34.0976 17.1214 33.7071L24.7281 26.1005L32.3347 33.7071C32.7252 34.0976 33.3584 34.0976 33.7489 33.7071C34.1394 33.3166 34.1394 32.6834 33.7489 32.2929L26.1423 24.6863L33.7488 17.0797C34.1394 16.6892 34.1394 16.056 33.7488 15.6655C33.3583 15.275 32.7251 15.275 32.3346 15.6655L24.7281 23.272L17.1215 15.6655C16.731 15.275 16.0978 15.275 15.7073 15.6655C15.3168 16.056 15.3168 16.6892 15.7073 17.0797L23.3138 24.6863L15.7072 32.2929Z" fill="#5642BB"/>
</svg>
