<svg width="60" height="60" viewBox="0 0 60 60" fill="none" xmlns="http://www.w3.org/2000/svg">
<path d="M15 20.625V16.1719C15 15.5246 15.5246 15 16.1719 15H20.625C21.2723 15 21.7969 15.5246 21.7969 16.1719C21.7969 16.8192 21.2723 17.3438 20.625 17.3438H17.3438V20.625C17.3438 21.2723 16.8192 21.7969 16.1719 21.7969C15.5246 21.7969 15 21.2723 15 20.625ZM43.8281 15H39.375C38.7277 15 38.2031 15.5246 38.2031 16.1719C38.2031 16.8192 38.7277 17.3438 39.375 17.3438H42.6562V20.625C42.6562 21.2723 43.1808 21.7969 43.8281 21.7969C44.4754 21.7969 45 21.2723 45 20.625V16.1719C45 15.5246 44.4754 15 43.8281 15ZM20.625 42.6562H17.3438V39.375C17.3438 38.7277 16.8192 38.2031 16.1719 38.2031C15.5246 38.2031 15 38.7277 15 39.375V43.8281C15 44.4754 15.5246 45 16.1719 45H20.625C21.2723 45 21.7969 44.4754 21.7969 43.8281C21.7969 43.1808 21.2723 42.6562 20.625 42.6562ZM43.8281 38.2031C43.1808 38.2031 42.6562 38.7277 42.6562 39.375V42.6562H39.375C38.7277 42.6562 38.2031 43.1808 38.2031 43.8281C38.2031 44.4754 38.7277 45 39.375 45H43.8281C44.4754 45 45 44.4754 45 43.8281V39.375C45 38.7277 44.4754 38.2031 43.8281 38.2031ZM28.9746 20.7715V27.8027C28.9746 28.45 28.45 28.9746 27.8027 28.9746H20.7715C20.1242 28.9746 19.5996 28.45 19.5996 27.8027V20.7715C19.5996 20.1242 20.1242 19.5996 20.7715 19.5996H27.8027C28.45 19.5996 28.9746 20.1242 28.9746 20.7715ZM26.6309 21.9434H21.9434V26.6309H26.6309V21.9434ZM39.8145 28.9746H32.7832C32.1359 28.9746 31.6113 28.45 31.6113 27.8027V20.7715C31.6113 20.1242 32.1359 19.5996 32.7832 19.5996H39.8145C40.4617 19.5996 40.9863 20.1242 40.9863 20.7715V27.8027C40.9863 28.45 40.4617 28.9746 39.8145 28.9746ZM38.6426 21.9434H33.9551V26.6309H38.6426V21.9434ZM28.9746 32.7832V39.8145C28.9746 40.4617 28.45 40.9863 27.8027 40.9863H20.7715C20.1242 40.9863 19.5996 40.4617 19.5996 39.8145V32.7832C19.5996 32.1359 20.1242 31.6113 20.7715 31.6113H27.8027C28.45 31.6113 28.9746 32.1359 28.9746 32.7832ZM26.6309 33.9551H21.9434V38.6426H26.6309V33.9551ZM38.3057 39.4775H34.292C33.6447 39.4775 33.1201 38.9529 33.1201 38.3057V34.292C33.1201 33.6447 33.6447 33.1201 34.292 33.1201H38.3057C38.9529 33.1201 39.4775 33.6447 39.4775 34.292V38.3057C39.4775 38.9529 38.9529 39.4775 38.3057 39.4775ZM37.1338 35.4639H35.4639V37.1338H37.1338V35.4639Z" fill="#5642BB"/>
</svg>
