<svg width="60" height="60" viewBox="0 0 60 60" fill="none" xmlns="http://www.w3.org/2000/svg">
<path d="M44.9998 30.2358V40.313C44.9998 42.8973 42.8971 45 40.3123 45H19.6874C17.1029 45 15 42.8973 15 40.313V19.6898C15 17.1053 17.1029 15.0026 19.6874 15.0026H33.1054C33.7527 15.0026 34.2774 15.5274 34.2774 16.1744C34.2774 16.8217 33.7527 17.3463 33.1054 17.3463H19.6874C18.3951 17.3463 17.3437 18.3976 17.3437 19.6898V40.313C17.3437 41.6052 18.3951 42.6565 19.6874 42.6565H40.3123C41.6047 42.6565 42.6561 41.6052 42.6561 40.313V30.2358C42.6561 29.5885 43.1807 29.0639 43.828 29.0639C44.4751 29.0639 44.9998 29.5885 44.9998 30.2358V30.2358ZM42.3109 21.6726C42.5336 21.8939 42.6563 22.1876 42.6563 22.4993C42.6563 22.8113 42.5336 23.1047 42.3109 23.3261L37.6113 27.9957C37.1524 28.4519 37.1501 29.1939 37.6063 29.6528C37.8352 29.8833 38.1364 29.9986 38.4374 29.9986C38.7361 29.9986 39.0348 29.8851 39.2635 29.6581L43.9631 24.9884C44.6317 24.3238 45 23.44 45 22.4993C45 21.5586 44.6317 20.6747 43.9631 20.0103L39.2635 15.3406C38.8046 14.8844 38.0625 14.8867 37.6063 15.3459C37.1501 15.805 37.1524 16.5468 37.6113 17.003L42.3109 21.6726ZM39.7849 22.4435C39.7849 21.7962 39.2603 21.2716 38.6132 21.2716C34.3875 21.2716 30.4147 22.917 27.4266 25.9049C24.4385 28.8927 22.7929 32.8652 22.7929 37.0905V37.9694C22.7929 38.6165 23.3176 39.1411 23.9649 39.1411C24.612 39.1411 25.1367 38.6165 25.1367 37.9694V37.0905C25.1367 29.6601 31.1822 23.6151 38.6132 23.6151C39.2603 23.6151 39.7849 23.0905 39.7849 22.4435V22.4435Z" fill="#5642BB"/>
</svg>
