<svg width="60" height="60" viewBox="0 0 60 60" fill="none" xmlns="http://www.w3.org/2000/svg">
<path d="M32.8789 45H21.6875C19.1027 45 17 42.8973 17 40.3125V24.4336C17 21.8488 19.1027 19.7461 21.6875 19.7461H32.8789C35.4637 19.7461 37.5664 21.8488 37.5664 24.4336V40.3125C37.5664 42.8973 35.4637 45 32.8789 45ZM21.6875 22.0898C20.3952 22.0898 19.3438 23.1413 19.3438 24.4336V40.3125C19.3438 41.6048 20.3952 42.6562 21.6875 42.6562H32.8789C34.1712 42.6562 35.2227 41.6048 35.2227 40.3125V24.4336C35.2227 23.1413 34.1712 22.0898 32.8789 22.0898H21.6875ZM42.2539 37.3828V19.6875C42.2539 17.1027 40.1512 15 37.5664 15H24.5586C23.9113 15 23.3867 15.5246 23.3867 16.1719C23.3867 16.8192 23.9113 17.3438 24.5586 17.3438H37.5664C38.8587 17.3438 39.9102 18.3952 39.9102 19.6875V37.3828C39.9102 38.0301 40.4348 38.5547 41.082 38.5547C41.7293 38.5547 42.2539 38.0301 42.2539 37.3828Z" fill="#5642BB"/>
</svg>
